<?xml version="1.0" encoding="UTF-8"?>
<svg id="Capa_1" data-name="Capa 1" xmlns="http://www.w3.org/2000/svg" viewBox="0 0 941 99">
  <defs>
    <style>
      .cls-1 {
        fill: #fff;
      }
    </style>
  </defs>
  <path class="cls-1" d="M69.57.52c14.94,1.15,33.62.26,48.94.25l93.89-.04,287.26.02c1.14,0,2.23.12,3.26.64,4.41,2.23,39.09,24.18,41.62,26.64.12.12.21.28.28.43,8-1.55,16.24-5.05,23.99-7.68l41.57-14.01c5.29-1.8,13.43-5.37,18.74-6.01l62.15.02c9.91,0,19.96.39,29.85.03l3.05.28c-1.53,1.74-98.7,33.57-109.43,37.18l-22.11,7.49c-3.73,1.25-7.76,2.94-11.62,3.63,4.79,1.72,71.72,47.12,72.38,48.51.02.04.03.07.05.11l-64.79.06c-6.84,0-22.31.97-27.96-.52-3.8-1-7.77-4.26-11.07-6.42-5.14-3.36-30.44-21.27-34.51-21.23-5.21.05-23.16,7.14-29.22,9.19-19.34,6.55-38.63,13.5-58.14,19.49-18.27-.42-36.58-.05-54.85-.07l-114.67-.04c-11.89,0-83.36-.95-87.35.53H0v-.32c2.26-2,9.95-14.21,12.25-17.51L48.46,29.35c6.22-8.93,12.16-18.51,18.92-27.03.62-.78,1.27-1.4,2.19-1.8M268.8,77.94c1.84-1.31,12.57-15.49,12.89-17.29.03-.15.05-.29.06-.44-28.31-.55-56.69-.13-85-.13h-35.1c-5.68,0-11.45-.27-17.12,0,2.11-1.37,13.27-18.38,13.69-20.56.02-.1.02-.21,0-.31l194.53-.03c9.55.02,19.11.15,28.65,0-.1,1.04-.52,1.74-1.09,2.59-10.28,15.07-21.68,29.22-31.62,44.56-1.5,2.32-3.19,5.78-5.34,7.51-.07.06-.15.12-.22.17,11.09-3.35,22.04-7.35,33.02-11.08l55.28-18.66,29.72-9.96c5.52-1.81,11.73-3.3,16.96-5.8-.89-2.15-35.67-24.3-40.13-26.52h-203.16s-66.03-.01-66.03-.01c-9.69,0-19.99-.92-29.61-.12-2.64,5.37-8.75,12.32-12.42,17.32l-28.46,38.76h170.48Z"/>
  <path class="cls-1" d="M798.35.69c6.23-.2,12.69-.02,18.91.35-4.39,2.47-10.53,3.84-15.39,5.48l-34.65,11.69-70.46,23.89-26.31,8.88c-6.44,2.2-12.88,4.65-19.45,6.42,2.35.66,50.89,32.68,52.63,34.99,6.71.32,13.52.09,20.24.09l37.07.02h119.14s38.71-.03,38.71-.03c6.72-.02,13.97-.57,20.62.2l.32.77-.81,1.62c.47,1.12.82,1.6.58,2.83-9.85.7-20.05.16-29.94.16h-56.9c-50.79,0-101.66.66-152.44-.08-.29-.6-61.16-41.49-64.19-42.62,5.13-.93,10.41-3.29,15.38-4.99l29.46-10.03,72.83-24.67c14.85-5.04,29.66-10.35,44.64-14.99"/>
  <path class="cls-1" d="M748.68,1.15c6.42-1.17,14.29-.43,20.83-.08-.33.39-144.64,50.09-152.99,51.79,3.87,1.38,63.01,41.14,64.1,42.83,1.26.61,2.88,1.21,3.75,2.34-3.19.08-7.88.72-10.87-.2-4.32-1.33-8.59-5.15-12.38-7.63-13.12-8.57-26.06-17.46-39.09-26.17-5.5-3.68-15.06-11.23-20.83-13.05,9.53-2.02,19.37-6.22,28.62-9.36l55.44-18.78,43.4-14.7c6.39-2.16,14.03-3.96,20.01-6.99"/>
  <path class="cls-1" d="M864.85,62.39c6.13-.6,20.11-1.65,25.49,1.28,1.22.67,1.83,1.4,2.22,2.73-.07,3.49-4.12,14.71-6.24,17.5-2.31,3.04-5.53,3.67-9.07,4.16-2.91,1.11-19.85.57-22.99-.48-1.3-.44-2.55-1.08-3.19-2.36-.63-4.91,3.03-13.88,5.44-18.23,1.72-3.1,5.18-3.7,8.34-4.61M858.85,66.68c-.19,4.81-7.39,15.08-4.05,18.69,1.19,1.29,3.76,1.57,5.42,1.61,3.89.11,11.89.86,15.37-.19,2.37-.31,6.16-.62,7.67-2.75.08-.11.14-.23.17-.36,1.68-1.78,6.25-14.08,6.2-16.64-.01-.57-.25-1.09-.54-1.57-3.73-3.24-16.86-2.15-21.74-1.8-.37.03-.74.06-1.11.1-2.77.65-4.82,1.78-7.4,2.91"/>
  <path class="cls-1" d="M720.47,61.93c1.23-.11,1.98-.15,3.07.52,2.32,3.24,13.88,21.46,13.59,24.21,7.34-3.01,29.36-25.4,34.31-24.84l.53.71c0,.55-.04,1.14-.17,1.67-.61,2.53-7.84,22.83-8.5,23.46-.32.3-.96.58-1.35.82l-.9-.23c-1.55-2.88,6.74-15.89,5.83-20.34l1.03-1.4-.3-.31c-7.67,4.39-23.97,20.59-30.13,22.67-3.87-.58-11.87-20.38-16.14-23.75.05.22.08.44.1.67.13,1.49-6.46,20.56-7.41,21.68-.63.75-1.4,1.16-2.38,1.24-.89-2.38,7.2-23.04,8.82-26.79"/>
  <path class="cls-1" d="M929.52,62.18c.25-.02.49-.04.74-.05,2.53-.1,6.88.1,8.77,1.9.84.8,1.31,1.62,1.33,2.79.03,2.24-1.4,5.22-2.96,6.78-5.62,5.63-24.05,3.59-31.78,3.58,5.69,1.35,22.18,8.13,26.71,11.5-6,.86-23.96-9.11-30.72-11.64.11.32.16.64.15.98-.06,2.49-2.65,8.89-4.45,10.57l-.94-.08c-.04-.41-.04-.81-.02-1.22.16-2.46,7.4-23.93,8.42-24.81.11-.1.22-.19.35-.27.46.6.86,1.08.88,1.87l.3,1.31c-.81,3.14-1.94,8.39-4.3,10.65,7.98-.5,26.93,1.63,32.83-2.94,1.35-1.05,2.33-2.44,2.54-4.17.16-1.27.05-2.76-.76-3.79-2.38-1.69-5.51-1.57-8.31-1.69l1.66-.53-.44-.74Z"/>
  <path class="cls-1" d="M810.27,84.86c-.24.33-.54.6-.88.82-5.74,3.78-22.01,3.65-28.83,2.23-1.99-.41-3.7-.89-4.84-2.64-.39-4.68,3.04-14.52,5.55-18.47,1.95-3.06,6.23-3.8,9.49-4.51l.26,1.3-.05.03c-1.77,1.03-3.87,1.11-5.67,2.29-3.1,2.03-5.54,11.78-6.5,15.37-.29,1.1-.6,2.18-.3,3.3,1.38,1.71,3.84,2.08,5.9,2.3,6.38.67,17.75,1.1,23.28-2.28,2.73-3.51,6.71-14.12,6.47-18.64-.6-1.07-1.56-1.49-2.7-1.8-1.6-.43-3.25-.64-4.91-.64,1.26-.49,3.08-.18,3.95-1.17,2.33.24,4.37.67,6.07,2.37.49.76.57,1.43.48,2.31-.38,3.45-4.23,15.76-6.77,17.81"/>
  <path class="cls-1" d="M821.32,62.39c3.28-.58,32.77-.87,34.33.2-2.01,1.79-13.79.95-17.02.96.09.33.15.68.15,1.02.04,2.44-2.85,10.73-4.59,12.55.01.05.02.09.03.14.42,2.04-1.49,6.81-2.67,8.55-.65.96-1.41,2.36-2.64,2.6-1.73-5.05,8.28-19.69,7.22-24.98-4.31.15-10.52.96-14.58-.24l-.23-.81Z"/>
  <path class="cls-1" d="M905.12,62.22c6.62-.2,18.27-1.05,24.4-.04l.44.74-1.66.54c-4.71.47-19.13-.96-22.3.63-.02-.79-.42-1.26-.88-1.87"/>
  <path class="cls-1" d="M790.77,62.3c4.55-.42,15.55-1.08,19.72.07-.87.98-2.69.68-3.95,1.17-4.49.42-11.13.84-15.51.06l-.26-1.3Z"/>
  <path class="cls-1" d="M69.53,0h430.02l.11.75-287.25-.02-93.89.04c-15.32.01-34,.91-48.94-.25l-.04-.52Z"/>
  <path class="cls-1" d="M170.85,99c3.99-1.48,75.46-.53,87.35-.53l114.67.04c18.27.02,36.58-.34,54.85.07v.41H170.85Z"/>
  <path class="cls-1" d="M629.17,0h91.84l.09.81c-9.9.36-19.94-.02-29.85-.03l-62.15-.02.07-.77Z"/>
</svg>