<?xml version="1.0" encoding="UTF-8"?>
<svg id="Capa_1" data-name="Capa 1" xmlns="http://www.w3.org/2000/svg" viewBox="0 0 960 960">
  <defs>
    <style>
      .cls-1 {
        fill: #fff;
      }
    </style>
  </defs>
  <path class="cls-1" d="M688.17,315.89c-.06-.62-.13-1.23-.22-1.85-.09-.61-.19-1.23-.3-1.83-.11-.61-.24-1.22-.38-1.82-.14-.6-.29-1.21-.45-1.8-3.11-11.35-10.48-21.4-20.83-27.13-6.32-3.5-12.88-5.23-20.06-5.79-14.07-1.08-28.41-.25-42.52-.23l-77.98.03-133.02-.03c-24.13,0-48.33-.38-72.45.12-14.59.27-28.28,3.29-38.81,14.15-8.81,9.09-14.19,22.18-13.88,34.89.18,7.35,2.3,14.35,5.6,20.86,5.15,10.15,12,19.53,18.18,29.08,7.74,11.95,15.18,24.11,22.82,36.13l79.27,125.11,18.24,28.47c4.61,7.21,10.02,14.51,13.16,22.51,3.22,8.19,1.86,17.38,3.25,25.89,15.68-22.09,31.88-43.27,27.05-72.06-.55-3.27-1.32-6.49-2.32-9.65-1-3.16-2.21-6.24-3.64-9.23-5.83-11.98-14.45-23.19-21.83-34.29l-45.69-69.11c-4.27-6.51-8.58-13-12.92-19.47-2.43-3.61-5.21-7.21-7.3-11.02l147.64-.08c28.26,0,56.73-.69,84.97.1-9.1,14.92-18.75,29.55-28.17,44.27l-50.92,79.68-67.56,105.76-21.74,33.99c-3.89,6.07-8.11,12.01-11.6,18.31-1.38,2.48-3.21,5.34-2.68,8.28.25,1.4,1.26,2.93,2.45,3.71,7.13,4.61,39.66,2.58,49.59,2.59l.27-.48c5.81-10.21,12.94-20.01,19.3-29.93l40.32-62.91,106.57-166.15,36.02-56.07c6.29-9.81,14.5-20.6,19.07-31.22.25-.57.49-1.14.71-1.72.22-.58.44-1.16.64-1.75.2-.59.39-1.18.56-1.77.17-.59.34-1.19.49-1.79.15-.6.29-1.21.41-1.81.12-.61.23-1.22.33-1.83.1-.61.18-1.23.25-1.84s.13-1.23.18-1.85c.05-.62.08-1.24.1-1.86.02-.62.02-1.24.02-1.86s-.03-1.24-.06-1.86c-.03-.62-.08-1.24-.14-1.85ZM640.83,356.49c-56.37.63-112.81.03-169.19.03l-120.25-.02c-4-4.85-9.51-10.49-11.75-16.35-.64-1.67-.79-2.89,0-4.56,5.77-2.02,48.31-.93,57.95-.93l121.54-.04c10.69.68,21.81.04,32.54.04l64.59.04c9.35,0,19.12-.6,28.42.1,1.96.15,4.11.34,5.89,1.23l-.09-.06.93.45.04.13c.06.04.13.08.19.13l-.19-.12.28.94c-1.2,6.51-7.22,13.55-10.92,18.99Z"/>
  <path class="cls-1" d="M646.65,437.55l-106.16,164.32-33.04,51.15c-6.49,9.99-13.42,19.7-19.27,30.1,9.9.08,19.8.09,29.7.03,16.08-.34,31.94-4.33,43.38-16.3,7.05-7.38,12.25-16.32,17.68-24.9l16.84-26.64,54.08-85.11,49.48-77.39c8.77-13.67,20.5-30.42,27.73-44.61,3.59-7.05,5.19-14.71,4.92-22.63-.14-4.07-.77-8.29-2.2-12.11-2.58-6.91-21.08-39.21-25.87-44.05-.35-.36-.76-.66-1.18-.93-.23,8.98,0,18.45-3.77,26.82-4.82,10.7-12.41,20.47-18.78,30.3l-33.55,51.94Z"/>
  <path class="cls-1" d="M251.58,332.91c-14.5,16.84-25.16,36.57-23.43,59.35.66,8.74,3.31,16.93,7.32,24.68,6.94,13.41,16.01,25.79,24.06,38.56,17.06,27.13,34.28,54.16,51.64,81.09l56.48,89.21c7.72,12.19,15.15,24.55,23.22,36.51l3.3,4.97c11.93-23.74,21.77-38.96,12.7-66.58-4.68-14.25-14.35-26.73-22.51-39.17l-21.24-32.77-81.74-126.35c-7.65-11.66-21.94-31.39-26.62-43.65-2.12-5.55-2.27-24.71-3.19-25.84Z"/>
</svg>