<?xml version="1.0" encoding="UTF-8"?>
<svg id="Capa_1" data-name="Capa 1" xmlns="http://www.w3.org/2000/svg" viewBox="0 0 1920 1080">
  <defs>
    <style>
      .cls-1 {
        fill: #00aeee;
      }
    </style>
  </defs>
  <path class="cls-1" d="M775.06,439.99l159.91-.06c14.57,0,53.1-1.81,65.26.62,9.01,1.8,18.5,7.04,25.01,13.48,6.51,6.44,11.26,15.17,13.03,24.17,3.45,17.54,1.37,40.02,1.34,58v104.8l-60.83-.02c.01-45.54.62-91.17.05-136.71-.08-6.72-.67-17.73-5.91-22.63-8.82-8.25-23.52-6.07-34.63-5.74l.02,63.63.12,101.46c-20.42.34-40.9.02-61.32,0l-.11-165.03c-13.79-.83-27.93-.4-41.74-.05l.11,165.08-60.21.12-.09-201.12Z"/>
  <path class="cls-1" d="M1106.62,440.15c25.2-.88,50.65-.14,75.88-.12,15.22,0,31.02-1.13,46.15,0,4.8.36,9.4,1.37,13.87,3.19,11.07,4.52,19.29,13.32,23.76,24.33,2.82,6.96,4.03,14.36,4.55,21.81,1.02,14.72,1.47,145.79-1.04,151.63-20.4.42-40.88.03-61.29,0,.47-.78.8-1.3,1.01-2.2,1.05-4.42,1.06-14.73-1.37-18.63.59-.87,1.07-1.81,1.31-2.84,1.08-4.8,1.27-15.11-1.41-19.37-26.63-1.3-53.88-.31-80.56-.02.07.12.14.24.21.36.1.21.19.42.29.62.38.75.78,1.53.96,2.36,1.12,5.23,1.49,35.67-1,39.72-19.95.41-39.98.02-59.94,0l-.09-102.64c-.01-18.15-1.44-37.4.93-55.36,1.06-8.03,3.14-15.64,7.68-22.45,6.77-10.15,18.12-17.89,30.1-20.4ZM1127.7,559.65l58.94.06,22.5.02c1.87-5.1,1.27-52.75.5-61-.35-3.77-1.1-7.57-2.71-11.01-2.12-4.53-5.57-7.77-10.31-9.45-11.09-3.92-33.54-1.56-45.99-1.54-6.46.64-11.87,1.73-16.24,6.93-12.28,14.6.42,61.82-6.46,75.54-.08.15-.15.31-.23.46Z"/>
  <path class="cls-1" d="M1560.57,440.16c18.88-1.04,38.25-.25,57.18-.28,14.67-.03,30.41-1.18,44.96.41,1.51.15,3.02.37,4.51.64,1.49.27,2.97.61,4.44,1,1.47.39,2.92.84,4.35,1.35,1.43.51,2.84,1.07,4.23,1.69,12.24,5.57,20.4,16.27,24.99,28.67,1.76,4.76,3.05,9.56,3.51,14.62,1.66,18.39.35,38.03.32,56.59-.02,15.19,1.37,31.87-.53,46.9-.8,6.33-3.16,12.73-5.85,18.51-8.94,19.26-20.73,23.35-39.35,30.1-.45.23-.63.35-1.19.45-7.93,1.42-90.62.61-97.92-.6-8.37-1.39-16.74-4.44-23.87-9.06-11.42-7.41-18.04-19.61-20.77-32.74-2.96-14.23-2.92-98.1-.64-114.19,1.12-7.89,3.32-16.32,7.79-22.97,7.69-11.44,20.49-18.56,33.84-21.1ZM1621.64,605.86c7.75-.22,14.46-.92,20.06-6.8,2.68-2.8,3.91-5.41,4.76-9.15,3.02-13.33,1.74-28.53,1.74-42.14.01-13.71.36-27.55-.15-41.24-.26-7.03-1.61-18.92-6.95-24.1-8.42-8.17-28.84-5.81-39.72-5.7-7.15.64-14.32,1.58-19.24,7.37-3.44,4.05-4.45,10.06-5.07,15.2-1.54,12.88-.57,26.77-.59,39.76-.01,13.85-.89,28.39.37,42.16.54,5.89,2.29,15.61,7.21,19.53,9.45,7.53,26.17,5.34,37.58,5.13Z"/>
  <path class="cls-1" d="M571.21,440.08c20.16-.74,40.55-.09,60.74-.07v128.58s.04,72.4.04,72.4c-20.22.34-40.49.01-60.72,0l-.08-43.03c-25.33-.98-51.05-.37-76.4-.04l.04,43.1-60.32-.04.05-136.57c0-20.97-1.98-43.58.27-64.36,19.95-.59,40.06-.06,60.03-.06l-.02,115.39c25.44.47,50.94.12,76.39.04v-115.35Z"/>
  <path class="cls-1" d="M242.58,440.04c53.5-1.31,107.34-.09,160.88-.03l-.04,33.45-70.24.06c-14.13-.06-44.07-2.47-56.57,1.27-3.39,1.01-6.05,2.52-7.7,5.8-2.35,4.68-3.29,16.55-1.44,21.54,1.66,4.45,5.13,7.26,9.56,8.68,7.19,2.3,15.8,1.39,23.27,1.34,21.17-.16,63.69-3.83,82.24,4.97,11.08,5.26,18.9,16.04,22.79,27.44,5.71,16.72,5.73,54.09-2.1,69.87-6.85,13.8-18.75,20.26-32.7,25.04-.81.78-1.63,1.18-2.74,1.3-16.36,1.76-34.36.3-50.86.3l-105.32-.12c.49-12.99.29-26.08.38-39.09l77.72-.11c14.99.11,32.29,1.92,47.02-.47,3.97-.65,7.35-1.48,9.74-5.01,4.06-5.99,4.31-15.72,3.01-22.58-.68-3.56-2.03-7.59-5.27-9.6-15.33-9.48-87.5,7.9-115.81-12.25-10.14-7.22-16.84-18.84-18.84-31.04-1.72-10.5-1.83-39.91.27-50.25,1.14-5.59,3.3-10.9,6.69-15.51,6.11-8.31,15.98-13.4,26.06-15.03Z"/>
  <path class="cls-1" d="M1298.01,440.16c21.7-1.32,44.2-.22,65.97-.24,16.1-.01,77.76-2.2,89.75,1.61,12.63,4.01,23.97,12.14,30.07,24.13,3.34,6.56,4.96,14.09,5.58,21.39,1.14,13.58,1.09,147.8-.9,153.96l-61.08-.02c.41-.78.75-1.57.96-2.43,1.64-6.66,1.18-89.79.27-100.47-.14-1.58-.64-2.82-1.49-4.16,3.71-5.63,1.95-27.04,1.83-34.42-.1-6.5-2.11-13.33-6.94-17.89-10.45-9.86-50.01-5.99-64.92-5.78.1.33.21.65.31.99,1.97,7.08,1.14,143.2.52,159.51-.07,1.87-.34,3.07-1.3,4.69l-60.39-.03c4.7-7.27-.54-176.51,1.76-200.81Z"/>
  <path class="cls-1" d="M671.15,440.03c20.92-.4,41.95-.04,62.88-.05v201.13s-62.89-.11-62.89-.11v-200.96Z"/>
</svg>