<?xml version="1.0" encoding="UTF-8"?>
<svg id="Capa_1" data-name="Capa 1" xmlns="http://www.w3.org/2000/svg" viewBox="0 0 960 960">
  <defs>
    <style>
      .cls-1 {
        fill: #fff;
      }
    </style>
  </defs>
  <path class="cls-1" d="M423.53,294.12c4.99-7.99,11.37-13.4,20.76-15.52,7.76-1.75,21.05-.63,29.52-.6l62.06-.03c9.46,0,22.96.74,31.97-.22-10.12,19.62-22.42,38.19-32.94,57.61-13.16-.45-26.39-.21-39.56-.21-7.43,0-16.36-.91-23.61.58-3.08.63-5.84,2.17-8.12,4.32-1.49,1.4-2.75,3.06-3.86,4.77-5.03,7.76-9.3,16.25-13.9,24.3-3.22,5.63-7.14,11.25-9.78,17.17-1.23,2.76-2.13,5.66-2.21,8.7-.16,5.84,3.22,11.08,6.07,15.94l10.64,18.12c6.64,11.33,13.34,21.49,8.77,35.17-1.93,5.78-5.5,11.12-8.56,16.36l-13.82,23.65c-2.83,4.84-5.93,9.69-8.29,14.77-10.2-17.1-20.09-34.4-30.09-51.62-7.95-13.7-20.41-32.23-24.51-46.97-3.08-11.07-3.03-23.37-.24-34.5,2.76-11,8.76-20.39,14.35-30.12l18.37-31.92c3.32-5.77,7.06-11.57,9.94-17.56,2.49-2.57,5.2-8.84,7.06-12.18Z"/>
  <path class="cls-1" d="M535.19,336.24c.06.05.13.09.18.15,2.33,2.2,13.23,22.4,16.14,27.43,10.51,18.19,21.6,36.2,31.66,54.64,1.53,2.77,2.89,5.62,4.09,8.55.8,1.96,1.5,3.96,2.11,5.99.61,2.03,1.12,4.09,1.52,6.17.41,2.08.72,4.18.93,6.29.21,2.11.32,4.23.32,6.35.01,2.16-.08,4.32-.27,6.47-.19,2.15-.49,4.29-.89,6.41-.4,2.12-.9,4.22-1.5,6.3s-1.3,4.12-2.1,6.12c-2.64,6.66-6.46,12.81-10.02,19l-13.51,23.44-15.5,27.08c-2.9,5.1-5.67,10.39-8.82,15.33-1.41,2.21-2.97,4.29-4.83,6.14-4.08,4.07-8.88,6.67-14.51,7.81-9.01,1.83-23.08.82-32.67.82l-61.94-.02c-9.77-.02-19.82-.52-29.56.17,3.44-7.2,8.05-14.17,12.04-21.09,6.95-12.14,13.96-24.24,21.05-36.29,12.07.27,24.17.13,36.25.17,8,.02,20.92,1.08,28.43-.98,3.06-.84,5.66-2.81,7.72-5.18,3.85-4.43,6.45-10.33,9.38-15.41l14.34-24.79c2.39-4.21,4.72-8.67,4.7-13.64-.07-12.71-22.11-37.67-26.01-52.27-.17-.66-.32-1.33-.45-2.01-.13-.67-.23-1.35-.31-2.03-.08-.68-.13-1.36-.16-2.05-.03-.68-.04-1.37-.02-2.06.02-.69.06-1.37.13-2.05.07-.68.16-1.36.27-2.04.11-.68.25-1.35.41-2.01.16-.67.35-1.33.55-1.98,2.47-7.96,8-15.67,12.21-22.88,6.27-10.64,12.48-21.33,18.62-32.04Z"/>
  <path class="cls-1" d="M534.5,673.41c-3.74,3.77-8.16,6.68-13.37,7.91-6.3,1.49-13.89.78-20.36.78h-29.95s-29.11,0-29.11,0c-5.78,0-11.69.26-17.45-.28-1.99-.18-3.68-.81-5.36-1.9-2.5-1.62-4.8-4.2-5.38-7.19-.43-2.2.05-4.63.83-6.7,2.32-6.21,6.67-12.17,9.99-17.9,4.14-7.15,7.91-14.66,12.49-21.53,4.22-6.34,9.62-10.97,17.26-12.42,6.64-1.26,14.25-.61,21-.61l37.64.03h21.45c4.73-.04,9.68-.38,14.39.07,3.02.28,6.02,1.07,8.55,2.81,2.09,1.44,3.54,3.45,4,5.98.41,2.25.02,4.62-.77,6.74-2.28,6.15-6.54,12.23-9.83,17.91-4.96,8.56-9.69,17.54-15.36,25.65l-.66.65ZM491.97,668.75c1.38-.48,2.44-.96,3.46-2.06,3.84-4.16,15.7-25.38,18.46-31.18.81-1.69,2.09-4.79,1.4-6.65-.25-.69-.85-.96-1.49-1.25-4.07-1.85-26.04-1.3-31.31-.86-1.33.41-2.47.8-3.47,1.82-4.09,4.18-14.7,23.86-17.87,29.88-1.16,2.21-2.47,4.92-2.51,7.46.78,1.4,1.65,1.89,3.2,2.34,5.27,1.52,24.36,1.13,30.13.5Z"/>
  <path class="cls-1" d="M250.54,669.03c1.56-2.65,4.85-7.12,4.67-10.22-.12-1.97-1.95-2.79-3.65-3.23-4-1.04-8.62-.61-12.74-.6l-26.52.08c-4.64.02-9.83.47-14.4-.3-2.88-.49-6.03-1.57-8.14-3.69-1.78-1.78-2.68-4.47-2.69-6.95-.02-7.11,7.44-18.17,12.32-23.1,3.86-3.9,8.03-5.96,13.41-6.94,7.97-1.45,25.63-.51,34.47-.5l75.05.03-7.34,12.95c-9.49.29-19.06.03-28.56.03l-48.62-.05c-.69,1.11-1.36,2.24-2.03,3.37-1.19,2.03-3.26,5.3-2.5,7.76.48,1.58,1.86,2.23,3.37,2.62,3.81.98,8.44.52,12.37.5l25.84-.11c4.72-.02,9.69-.35,14.38.18,2.22.25,4.47.88,6.44,1.95,2.45,1.33,4.4,3.34,5.14,6.09,2.03,7.52-5.9,17.62-9.59,23.92-1.22,2.19-3.79,8.29-6.1,9.19-.83.33-2.08.25-2.97.26-3.23-.61-7.23-.24-10.53-.24l-23.69.07-85.03.03c2.54-4.3,4.98-8.65,7.33-13.05,26.7-.73,53.59-.14,80.31-.07Z"/>
  <path class="cls-1" d="M328.22,626.32c4.79-6.47,9.69-11,17.94-12.24,9.37-1.41,19.72-.52,29.22-.52l56.75.04c-2.48,4.32-4.93,8.66-7.35,13.01l-33.44-.06c-5.66,0-12.22-.64-17.75.43-1.51.29-2.54.92-3.61,2.01-2.27,2.3-17.01,27.89-18.79,31.93-.74,1.68-1.2,3.13-1.21,4.98.77,1.42,1.84,1.87,3.35,2.3,5.41,1.54,39.78,1.15,46.93.61-2.44,4.46-4.86,9.07-7.64,13.32l-52.19-.02c-7.77,0-18.67.84-25.95-.41-2.48-.43-5-1.89-6.75-3.67-1.93-1.96-3.16-4.57-3.13-7.35.07-6.82,11.18-22.72,14.9-29.49,3.13-4.73,5.84-9.95,8.71-14.85Z"/>
  <path class="cls-1" d="M574.84,613.67l110.06-.04c.06,2.56-4.57,10.29-6.5,12.29-.2.21-.52.44-.73.61-9.78.02-20.02.67-29.75-.14-1.49,4.71-6.62,12.09-9.25,16.67l-22.49,39.07c-6.15,0-39.56.71-42.74-.39,1.47-2.5,3.07-4.98,4.29-7.61,9.66-15.51,17.59-32.25,27.56-47.52-12.5-.03-25.36-.71-37.83.07,2.51-4.31,4.97-8.64,7.38-12.99Z"/>
  <path class="cls-1" d="M695,613.9c6.37-1.12,23.72-.25,30.96-.24l71.13.02c0,.1.02.2.02.29-.15,1.9-5.98,11.39-7.49,12.62-9.92,0-20.01.39-29.9-.22-.74,3.04-18.28,33.54-20.49,35.49,0,.11.02.21,0,.32-.21,2.16-10.22,18.79-11.85,19.95l-42.55-.07c.26-.22.35-.28.59-.58,3.44-4.44,8.7-14.93,11.74-20.23l12.38-21.52c2.18-3.79,4.61-7.59,6.54-11.51.3-.61.3-.99.25-1.65-9.55.46-19.38-.03-28.96-.01,2.52-1.89,7.11-9.64,7.62-12.66Z"/>
</svg>