<?xml version="1.0" encoding="utf-8" ?>
<svg xmlns="http://www.w3.org/2000/svg" xmlns:xlink="http://www.w3.org/1999/xlink" width="1201" height="629">
	<path fill="#009FE3" d="M151.193 271.567Q153.413 271.388 155.638 271.297C166.192 270.923 176.872 271.213 187.439 271.211C196.589 271.21 207.17 270.215 216.119 272.106C220.597 273.053 225.305 275.511 228.62 278.666C231.34 281.254 232.655 284.029 232.69 287.791C232.74 293.286 225.589 333.966 223.384 340.639C222.436 343.509 221.022 345.897 218.877 348.04C205.815 361.093 179.106 357.707 162.293 357.622Q160.454 357.6 158.616 357.645C146.002 358.002 153.742 378.398 147.46 384.37C146.414 385.364 145.274 385.683 143.891 385.868C139.11 386.509 133.959 385.734 129.124 385.751C123.869 385.769 118.454 386.443 113.227 385.981C111.428 385.821 110.677 385.652 109.52 384.285C108.926 381.466 123.476 301.066 125.524 292.337C126.248 289.25 127.205 285.916 128.943 283.24C133.456 276.287 143.506 273.235 151.193 271.567ZM155.52 347.181L173.729 347.301C176.791 347.235 179.234 346.582 181.398 344.285C182.8 342.796 183.982 340.823 184.589 338.869C187.054 330.933 193.482 294.041 193.581 285.931C192.214 284.476 190.887 282.951 189.352 281.67C185.069 281.153 180.962 280.855 176.646 280.989C172.595 281.762 169.056 283.053 166.711 286.665C163.865 291.049 155.987 339.541 155.52 347.181Z"/>
	<path fill="#009FE3" d="M267.147 271.541C278.088 270.74 289.35 271.205 300.333 271.191C309.32 271.18 318.92 270.478 327.805 271.663C331.971 272.219 336.076 273.354 339.737 275.458C343.467 277.603 346.96 280.763 348.076 285.065C349.152 289.217 341.47 331.311 339.775 337.827C339.195 340.056 338.387 342.17 337.194 344.147C332.352 352.175 323.72 355.045 315.15 357.149C307.596 358.447 260.466 358.292 252.612 357.129C248.165 356.471 243.744 355.029 239.942 352.599C236.761 350.565 233.972 347.914 233.172 344.092C232.671 341.697 232.769 339.219 233.033 336.801C233.715 330.547 235.441 324.256 236.514 318.042C238.053 309.138 238.956 299.603 241.356 290.911C242.061 288.362 243.05 285.957 244.53 283.755C249.737 276.005 258.455 273.179 267.147 271.541ZM276.231 347.242L289.841 347.29C293.228 347.069 295.49 345.782 297.727 343.237C298.853 341.958 299.484 340.527 299.966 338.901C302.145 331.547 309.26 293.74 308.767 287.496C308.631 285.775 307.664 284.374 306.36 283.275C302.778 280.256 297.404 280.876 293.046 280.995C289.312 281.539 285.193 282.266 282.878 285.631C280.843 288.588 271.199 338.323 272.154 341.964C272.651 343.858 274.849 345.906 276.231 347.242Z"/>
	<path fill="#009FE3" d="M887.494 271.706C897.204 270.517 907.482 271.315 917.285 271.282C928.249 271.244 940.461 270.071 951.278 271.754C955.305 272.381 959.356 273.684 962.751 275.983C966.259 278.358 968.757 281.798 969.478 286.013C970.357 291.161 966.171 315.581 963.159 319.689C961.04 322.58 909.746 319.398 902.068 320.705C899.899 321.074 897.596 321.913 896.397 323.904C895.066 326.114 893.592 334.943 894.318 337.39C899.01 339.394 927.637 338.231 934.801 338.348C941.604 338.769 949.939 340.575 954.717 345.769C957.098 348.356 959.246 351.637 959.047 355.266C958.373 356.478 958.21 357.002 956.794 357.423C954.737 358.035 881.728 358.104 875.217 357.451C871.029 357.032 866.777 355.865 863.064 353.861C859.575 351.977 855.737 348.536 854.695 344.555C853.197 338.836 862.448 289.863 865.896 284.163C870.324 276.842 879.712 273.775 887.494 271.706ZM914.091 311.083C917.643 311.094 922.641 311.567 925.866 309.91C928.708 306.642 930.797 292.823 930.376 288.201C930.301 287.378 930.151 286.584 929.847 285.814C929.402 284.136 927.968 282.763 926.452 281.956C926.276 281.862 926.096 281.778 925.917 281.689C921.826 281.096 917.939 280.777 913.801 281.086C910.97 281.681 906.374 282.724 904.681 285.354C901.393 290.461 899.511 302.706 899.231 308.846C900.283 310.245 901.456 310.752 903.196 310.985C906.73 311.459 910.529 311.154 914.091 311.083Z"/>
	<path fill="#009FE3" d="M763.649 271.706C763.983 271.659 764.316 271.607 764.652 271.573C776.32 270.397 788.805 271.217 800.552 271.209C811.687 271.202 826.646 269.942 837.352 271.953C841.569 272.745 845.692 274.588 848.972 277.377C851.94 279.901 854.045 283.17 854.268 287.119C854.779 296.141 850.581 309.639 848.89 319.013C846.807 330.557 845.543 342.995 842.4 354.262C842.037 355.561 841.476 356.543 840.582 357.55C834.014 358.402 810.975 358.192 804.141 357.401C801.425 351.988 814.1 309.527 812.361 301.894C812.333 301.774 812.297 301.655 812.264 301.536C812.379 301.419 812.498 301.306 812.608 301.185C814.185 299.444 815.437 291.588 815.254 289.396C815.046 286.914 814.097 284.53 812.119 282.936C808.857 280.308 803.696 280.644 799.741 281.02C795.396 281.432 791.379 282.878 788.764 286.564C785.877 290.632 785.518 297.82 784.645 302.664C782.966 311.993 777.449 351.624 773.221 356.756C772.401 357.357 771.604 357.581 770.607 357.676C765.835 358.13 760.842 357.488 756.039 357.497C750.746 357.507 745.156 358.277 739.896 357.752C738.323 357.594 737.543 357.601 736.526 356.331C735.564 351.395 747.539 289.651 749.729 284.199C752.33 277.724 757.463 274.274 763.649 271.706Z"/>
	<path fill="#009FE3" d="M1002.45 271.706C1013.13 270.478 1024.56 271.228 1035.32 271.223C1045.95 271.218 1057.49 270.29 1067.97 271.875C1071.44 272.401 1074.65 273.448 1077.67 275.277C1082.15 277.998 1085.32 281.606 1086.5 286.807C1086.94 288.797 1086.98 290.589 1085.82 292.357C1083.09 294.915 1052.68 293.713 1046.83 293.702C1047.49 291.912 1047.46 289.64 1047.1 287.78C1046.67 285.614 1045.26 283.953 1043.41 282.815C1039.11 280.157 1032.68 280.243 1027.92 281.423C1013.32 285.047 1019.96 300.219 1014.08 309.678C1014.01 309.787 1013.94 309.892 1013.87 309.998C1024.78 310.605 1075.41 308.6 1081.27 311.608C1081.3 311.752 1081.33 311.895 1081.35 312.04C1082.58 319.233 1078.65 339.454 1074.46 345.349C1070.12 351.455 1062.88 355.401 1055.58 356.707C1050.33 358.496 998.992 358.195 991.206 357.623C988.166 357.4 985.118 356.81 982.283 355.672C978.187 354.027 972.673 350.302 970.945 346.071C970.183 344.206 969.664 341.238 970.533 339.381C970.764 338.888 971.319 338.586 971.829 338.445C974.782 337.625 1006.9 337.575 1008.44 338.63C1010.56 340.076 1009.93 345.068 1013.17 346.962C1016.74 349.051 1024.11 348.794 1028.01 347.733C1031.84 346.691 1035.05 344.306 1037.01 340.836C1039.52 336.395 1041.42 326.074 1039.82 321.154C1039.78 321.013 1039.73 320.873 1039.68 320.733C1019.55 319.584 999.073 321.199 978.89 320.8C977.381 320.77 975.766 320.828 974.705 319.725C973.001 312.621 978.451 289.078 982.005 282.908C985.641 276.596 995.827 273.47 1002.45 271.706Z"/>
	<path fill="#009FE3" d="M549.04 243.43C560.514 242.547 572.512 243.21 584.042 243.221C593.296 243.231 603.276 242.506 612.447 243.48C612.845 243.787 613.53 244.146 613.685 244.622C614.122 245.962 613.855 247.06 613.21 248.275C611.538 251.426 608.498 254.077 605.599 256.067C598.474 260.96 591.017 262.367 582.564 262.897C579.57 263.084 576.522 263.057 573.64 263.965C570.467 267.191 570.919 275.699 569.645 280.124C577.342 280.56 599.589 278.754 605.614 281.138C606.617 281.535 606.538 281.594 606.977 282.579C606.649 285.251 606.053 287.258 604.298 289.359C595.713 299.636 580.729 299.404 568.803 300.854C566.943 301.08 566.621 301.667 565.521 303.076C562.248 316.942 559.388 346.396 554.461 357.538C544.374 357.75 527.902 358.795 518.41 357.311L517.635 356.182C517.263 354.041 517.375 351.967 517.67 349.821C519.063 339.672 521.495 329.45 523.312 319.338C525.46 307.386 532.52 261.001 536.425 253.136C538.794 248.363 544.166 245.078 549.04 243.43Z"/>
	<path fill="#009FE3" d="M452.011 243.33C457.591 243.276 483.656 242.012 486.938 244.099C489.752 248.888 483.801 262.75 484.024 268.858C484.233 274.599 514.436 268.085 519.593 272.793C519.659 273.822 519.537 274.653 519.235 275.63C516.78 283.574 503.845 288.334 496.249 289.256C491.596 289.821 485.283 288.943 481.081 291.109C477.501 295.946 472.777 331.022 471.285 339.598C473.944 340.384 476.589 341.363 478.996 342.755C482.8 344.955 486.197 348.341 487.29 352.712C487.773 354.646 487.453 355.744 486.427 357.389C480.229 358.41 456.715 358.232 450.482 357.065C446.794 356.375 443.124 354.994 440.043 352.831C437.099 350.763 433.945 347.342 433.44 343.627C432.764 338.649 447.335 258.313 449.747 248.505C450.229 246.544 450.816 244.967 452.011 243.33Z"/>
	<path fill="#009FE3" d="M671.539 243.565C679.733 242.309 698.423 243.024 707.242 243.497C711.37 248.641 703.665 262.477 704.797 268.768C704.961 269.674 705.38 270.545 706.347 270.868C713.557 273.275 735.14 268.67 740.292 272.413C740.53 273.89 740.159 275.348 739.563 276.7C736.435 283.795 723.904 288.33 716.643 289.213C712.048 289.772 706.182 289.153 701.896 290.904C698.744 292.192 694.267 332.336 691.397 339.12C697.014 341.227 703.906 343.624 706.727 349.395C707.764 351.516 708.247 354.4 707.493 356.669C706.573 357.367 705.86 357.482 704.741 357.609C696.43 358.55 670.409 358.615 663.015 354.438C659.416 352.405 657.264 348.777 654.064 346.268C653.967 346.191 653.867 346.118 653.769 346.043C654.552 343.796 655.662 329.576 656.368 325.52L665.263 276.443C667.204 265.552 668.646 254.244 671.539 243.565Z"/>
	<path fill="#009FE3" d="M383.146 271.527C399.235 270.456 420.392 270.771 436.574 271.462L436.446 271.887L437.762 271.649L438.216 273.041C437.869 276.09 435.662 278.691 433.638 280.853C425.745 289.288 414.275 290.629 403.415 290.895Q401.966 291.768 400.579 292.735C397.883 294.647 396.439 297.142 395.303 300.194C392.295 308.279 388.971 334.101 387.214 343.937C386.77 346.706 386.466 349.518 385.91 352.267C385.547 354.062 384.951 355.712 383.266 356.671C380.015 358.522 351.614 358.301 347.148 357.214C346.834 356.777 346.585 356.433 346.464 355.899C345.71 352.559 355.82 297.861 357.518 290.724C358.038 288.535 358.706 286.343 359.923 284.43C365.014 276.433 374.492 273.605 383.146 271.527Z"/>
	<path fill="#009FE3" d="M619.128 280.316C626.263 280.125 646.472 278.996 652.238 281.305C652.242 281.44 652.217 281.58 652.25 281.712C652.29 281.867 652.39 281.999 652.452 282.147C653.216 283.974 652.33 288.205 652.05 290.225C651.047 297.479 641.385 352.873 640.102 355.323C639.262 356.926 637.926 357.071 636.365 357.551C626.289 357.906 613.731 358.674 603.855 357.281L604.202 356.123L603.562 356.617C603.487 353.009 603.871 349.422 604.486 345.87L612.089 303.956C613.265 297.545 613.887 289.612 616.193 283.576C616.786 282.024 617.823 281.238 619.128 280.316Z"/>
	<path fill="#009FE3" d="M624.202 243.357C630.682 243.092 654.532 242.099 659.376 244.135C660.508 246.923 657.374 263.494 656.385 266.951C655.706 269.325 654.963 270.241 652.829 271.451C649.216 272.444 625.611 271.997 620.991 271.476C620.099 271.375 620.142 271.094 619.603 270.427C618.689 264.767 621.271 248.247 624.202 243.357Z"/>
	<path fill="#009FE3" d="M1160.65 293.665C1161.38 292.234 1161.38 290.606 1161.39 289.03C1161.41 287.07 1160.92 285.474 1159.48 284.055C1156.67 281.272 1152.11 280.607 1148.32 280.707C1143.81 280.827 1138.72 281.95 1135.52 285.387C1133.01 288.084 1129.46 303.192 1129.84 306.769C1130.03 308.531 1131.09 309.759 1132.8 310.202C1135.79 310.972 1139.7 310.184 1142.8 310.172C1151.88 310.138 1160.96 310.321 1170.04 310.227C1176.94 310.155 1184.21 309.608 1191.06 310.259C1192.8 310.424 1194.39 310.648 1195.82 311.71C1197.17 317.148 1192.83 337.851 1190.57 343.507C1188.61 348.41 1182.27 352.298 1177.65 354.31Q1174.74 355.568 1171.68 356.369Q1168.61 357.17 1165.46 357.494C1155.48 358.603 1144.72 357.738 1134.66 357.709C1125.19 357.681 1115.22 358.378 1105.8 357.58C1102.47 357.299 1099.15 356.614 1096.05 355.367C1090.97 353.324 1087.27 350.092 1085.18 344.991C1084.41 343.114 1083.65 341.051 1084.47 339.07C1086.15 338.471 1087.91 338.371 1089.68 338.25C1093.63 337.98 1121.85 337.49 1123.23 338.625C1124.16 339.39 1124.65 344.144 1127.04 346.126C1130.11 348.669 1134.51 348.607 1138.26 348.291C1142.5 347.933 1147.58 347.113 1150.38 343.573C1152.89 340.402 1155.44 326.141 1154.83 321.968C1150.85 317.667 1097.63 323.893 1089.11 319.258C1088.58 318.397 1088.5 318.292 1088.55 317.271C1088.93 310.576 1091.98 292.396 1094.45 286.464C1095.52 283.909 1097.32 281.589 1099.41 279.783C1104.03 275.774 1110.5 273.206 1116.48 272.057C1126.36 270.161 1137.39 271.322 1147.46 271.298C1157.56 271.272 1168 270.625 1178.06 271.382C1184.39 271.858 1193.35 274.123 1197.56 279.217C1198.9 280.836 1200.4 283.251 1200.22 285.422C1201.11 287.751 1201.27 289.571 1200.34 291.955L1199.75 292.836C1194.91 295.038 1167.64 293.686 1160.65 293.665Z"/>
	<path fill="#009FE3" d="M0 339.477C1.01193 338.775 1.95721 338.339 3.18593 338.19C6.85563 337.743 33.2649 337.406 36.4558 338.114C37.782 338.409 38.8094 338.981 39.5318 340.15C41.4732 343.292 41.3258 346.24 45.5497 347.512C50.2053 348.914 58.6188 348.645 62.8641 346.337C65.806 344.737 67.6116 342.118 68.4919 338.926C69.6308 334.796 71.6418 326.067 70.8865 322.005C66.6754 318.147 10.1278 322.972 6.06527 320.173C5.17109 319.557 4.98273 317.119 4.94967 316.112C4.66833 307.54 8.76074 287.167 14.6785 280.908C21.4437 273.753 31.505 271.372 41.037 271.224C51.7359 271.057 62.4552 271.296 73.1574 271.273C81.7024 271.254 91.0936 270.31 99.4991 272.023C104.059 272.953 108.909 274.88 112.277 278.187C114.998 280.86 116.892 284.66 116.862 288.513Q116.822 291.085 116.655 293.652L77.474 293.692C77.4374 290.066 77.8052 286.796 75.0339 284.008C72.3852 281.344 68.8464 280.441 65.1731 280.468C60.2408 280.503 55.1507 281.9 51.6318 285.518C48.7784 288.452 45.6745 302.925 45.8245 307.172C45.8483 307.847 46.0483 308.513 46.2762 309.143C52.067 313.301 107.654 306.808 112.475 312.339C112.746 317.694 109.005 337.203 107.028 342.348C106.283 344.288 105.068 346.054 103.664 347.577C97.1417 354.654 86.7187 357.455 77.428 357.716C66.3954 358.026 55.2918 357.805 44.2524 357.788C35.6761 357.775 26.4292 358.479 17.9965 356.888C13.3293 356.007 8.82051 354.499 5.33796 351.134C2.49311 348.385 1.02017 345.31 0 341.547L0 339.477Z"/>
</svg>
